<?xml version="1.0" encoding="UTF-8" standalone="no" ?>
<!DOCTYPE svg PUBLIC "-//W3C//DTD SVG 1.1//EN" "http://www.w3.org/Graphics/SVG/1.1/DTD/svg11.dtd">
<svg xmlns="http://www.w3.org/2000/svg" xmlns:xlink="http://www.w3.org/1999/xlink" version="1.1" width="350" height="350" viewBox="0 0 350 350" xml:space="preserve">
<desc>Created with Fabric.js 1.7.22</desc>
<defs>
</defs>
<g id="icon" style="stroke: none; stroke-width: 1; stroke-dasharray: none; stroke-linecap: butt; stroke-linejoin: miter; stroke-miterlimit: 10; fill: none; fill-rule: nonzero; opacity: 1;" transform="translate(-1.9444444444444287 -1.9444444444444287) scale(3.89 3.89)" >
	<polygon points="12.54,81 5.32,0 84.68,0 77.45,80.99 44.95,90 " style="stroke: none; stroke-width: 1; stroke-dasharray: none; stroke-linecap: butt; stroke-linejoin: miter; stroke-miterlimit: 10; fill: rgb(228,77,38); fill-rule: nonzero; opacity: 1;" transform="  matrix(1 0 0 1 0 0) "/>
	<polygon points="45,16.56 44.97,16.56 20.09,16.56 20.33,19.22 22.77,46.6 44.97,46.6 45,46.6 57.2,46.6 56.05,59.48 44.97,62.48 44.97,62.48 44.96,62.48 33.89,59.49 33.19,51.57 27.81,51.57 23.21,51.57 24.6,67.17 44.95,72.82 45,72.8 45,72.8 65.33,67.17 65.48,65.49 67.82,39.33 68.06,36.67 65.38,36.67 45,36.67 44.97,36.67 31.85,36.67 30.95,26.49 44.97,26.49 45,26.49 68.93,26.49 68.96,26.49 69.16,24.26 69.61,19.22 69.85,16.56 " style="stroke: none; stroke-width: 1; stroke-dasharray: none; stroke-linecap: butt; stroke-linejoin: miter; stroke-miterlimit: 10; fill: rgb(255,255,255); fill-rule: nonzero; opacity: 1;" transform="  matrix(1 0 0 1 0 0) "/>
</g>
</svg>