<?xml version="1.0" encoding="UTF-8"?>
<svg xmlns="http://www.w3.org/2000/svg" xmlns:xlink="http://www.w3.org/1999/xlink" viewBox="0 0 150 150" width="150px" height="150px">
<g id="surface72171443">
<path style=" stroke:none;fill-rule:nonzero;fill:rgb(21.176471%,48.627451%,96.862745%);fill-opacity:1;" d="M 75 6 C 36.953125 6 6 36.949219 6 75 C 6 113.050781 36.953125 144 75 144 C 113.046875 144 144 113.050781 144 75 C 144 64.726562 141.726562 54.972656 137.679688 46.203125 C 134.902344 50.734375 130.585938 54.222656 125.445312 55.894531 C 127.707031 61.84375 129 68.265625 129 75 C 129 104.773438 104.773438 129 75 129 C 45.226562 129 21 104.773438 21 75 C 21 45.226562 45.226562 21 75 21 C 83.101562 21 90.757812 22.839844 97.65625 26.050781 C 99.683594 21.070312 103.441406 16.984375 108.179688 14.527344 C 98.328125 9.09375 87.019531 6 75 6 Z M 118.5 18 C 109.386719 18 102 25.386719 102 34.5 C 102 43.613281 109.386719 51 118.5 51 C 127.613281 51 135 43.613281 135 34.5 C 135 25.386719 127.613281 18 118.5 18 Z M 75 45 C 58.429688 45 45 58.429688 45 75 C 45 91.570312 58.429688 105 75 105 C 91.570312 105 105 91.570312 105 75 C 105 58.429688 91.570312 45 75 45 Z M 75 45 "/>
</g>
</svg>
