<?xml version="1.0" encoding="UTF-8"?>
<svg xmlns="http://www.w3.org/2000/svg" xmlns:xlink="http://www.w3.org/1999/xlink" viewBox="0 0 128 128" width="128px" height="128px">
<g id="surface72197546">
<path style=" stroke:none;fill-rule:nonzero;fill:rgb(12.54902%,26.666668%,43.921569%);fill-opacity:1;" d="M 13.023438 36.601562 C 7.34375 36.601562 4.820312 38.800781 4.820312 45.640625 C 4.820312 50.160156 5.460938 52.683594 5.460938 56.5625 C 5.460938 58.761719 4.109375 61.082031 0.0078125 61.28125 L 0.0078125 66.742188 C 4.109375 66.84375 5.460938 69.167969 5.460938 71.367188 C 5.460938 75.246094 4.820312 77.566406 4.820312 82.085938 C 4.820312 88.925781 7.34375 91.125 12.921875 91.125 L 17.023438 91.125 L 17.023438 86.28125 L 15.765625 86.28125 C 13.144531 86.28125 12.304688 85.226562 12.304688 81.765625 C 12.304688 78.304688 12.625 75.339844 12.625 71.460938 C 12.625 66.621094 11.046875 64.746094 7.90625 64.007812 L 7.90625 63.6875 C 11.066406 62.949219 12.625 61.066406 12.625 56.226562 C 12.625 52.445312 12.304688 49.382812 12.304688 45.921875 C 12.304688 42.460938 13.046875 41.507812 15.765625 41.507812 L 18.585938 41.507812 L 18.585938 71.671875 C 18.585938 78.09375 20.78125 82.289062 27.203125 82.289062 C 29.203125 82.289062 30.78125 81.96875 31.921875 81.546875 L 30.867188 74.710938 C 30.246094 74.875 29.945312 74.875 29.625 74.875 C 28.886719 74.875 27.945312 74.230469 27.945312 72.25 L 27.945312 36.601562 Z M 110.976562 36.625 L 110.976562 41.46875 L 112.242188 41.46875 C 115.082031 41.46875 115.703125 42.410156 115.703125 45.890625 C 115.703125 49.152344 115.382812 52.40625 115.382812 56.1875 C 115.382812 61.027344 116.960938 62.910156 120.101562 63.648438 L 120.101562 63.96875 C 116.941406 64.707031 115.382812 66.589844 115.382812 71.429688 C 115.382812 75.210938 115.703125 78.265625 115.703125 81.726562 C 115.703125 85.304688 114.960938 86.25 112.242188 86.25 L 112.242188 86.351562 L 110.976562 86.351562 L 110.976562 91.390625 L 115.078125 91.390625 C 120.636719 91.390625 123.179688 89.191406 123.179688 82.351562 C 123.179688 77.832031 122.539062 75.507812 122.539062 71.429688 C 122.539062 69.230469 123.898438 66.910156 128 66.710938 L 128 61.25 C 123.898438 61.109375 122.539062 58.785156 122.539062 56.585938 C 122.539062 52.484375 123.179688 50.070312 123.179688 45.671875 C 123.179688 38.832031 120.65625 36.625 115.078125 36.625 Z M 44.96875 49.226562 C 37.289062 49.226562 29.941406 55.648438 30.140625 65.734375 C 30.140625 76.132812 36.984375 82.234375 46.007812 82.234375 C 49.789062 82.234375 53.988281 80.875 57.25 78.65625 L 54.085938 73.09375 C 51.765625 74.453125 49.570312 75.09375 47.25 75.09375 C 43.050781 75.09375 39.785156 73.097656 38.945312 68.257812 L 57.992188 68.257812 C 58.09375 67.519531 58.3125 66.054688 58.3125 64.375 C 58.429688 55.847656 53.789062 49.226562 44.96875 49.226562 Z M 73.234375 49.328125 C 66.09375 49.328125 61.25 53.429688 61.25 59.210938 C 61.25 64.351562 65.773438 66.984375 69.554688 68.445312 C 72.816406 69.707031 75.96875 70.765625 75.96875 72.867188 C 75.96875 74.445312 74.714844 75.484375 71.875 75.484375 C 69.253906 75.484375 66.613281 74.425781 63.773438 72.226562 L 59.671875 78.328125 C 62.832031 80.949219 67.648438 82.75 71.648438 82.75 C 80.046875 82.75 84.578125 78.328125 84.578125 72.546875 C 84.59375 66.769531 80.070312 64.347656 75.96875 62.984375 C 72.707031 61.722656 69.773438 60.992188 69.773438 58.890625 C 69.773438 57.3125 71.03125 56.367188 73.351562 56.367188 C 75.671875 56.367188 77.769531 57.304688 80.070312 58.984375 L 84.273438 53.429688 C 81.652344 51.429688 78.074219 49.328125 73.234375 49.328125 Z M 98.773438 49.328125 C 91.632812 49.328125 86.796875 53.429688 86.796875 59.210938 C 86.796875 64.351562 91.3125 66.984375 95.09375 68.445312 C 98.355469 69.707031 101.515625 70.765625 101.515625 72.867188 C 101.515625 74.445312 100.253906 75.484375 97.414062 75.484375 C 94.792969 75.484375 92.152344 74.425781 89.3125 72.226562 L 85.117188 78.328125 C 88.277344 80.949219 93.09375 82.75 97.09375 82.75 C 105.492188 82.75 110.023438 78.328125 110.023438 72.546875 C 110.023438 66.765625 105.515625 64.347656 101.414062 62.984375 C 98.253906 61.722656 95.3125 60.992188 95.3125 58.890625 C 95.3125 57.3125 96.578125 56.367188 98.898438 56.367188 C 101.21875 56.367188 103.316406 57.304688 105.617188 58.984375 L 109.8125 53.429688 C 107.191406 51.429688 103.613281 49.328125 98.773438 49.328125 Z M 45.070312 56.265625 C 48.851562 56.265625 50.328125 58.890625 50.328125 62.46875 L 38.96875 62.46875 C 39.609375 58.269531 42.128906 56.265625 45.070312 56.265625 Z M 45.070312 56.265625 "/>
</g>
</svg>
